<svg xmlns="http://www.w3.org/2000/svg" xmlns:xlink="http://www.w3.org/1999/xlink" stroke-miterlimit="10" viewBox="0 0 4096 4096" fill-rule="nonzero" stroke-linecap="round" stroke-linejoin="round" xmlns:v="https://vecta.io/nano"><style><![CDATA[.B{stroke-width:25}.C{stroke:#bd3853}.D{stroke:#490a00}.E{fill-rule:evenodd}.F{stroke-linecap:butt}.G{stroke-width:20}.H{fill:#ff6f6f}]]></style><defs><path d="M331.442 0H3764.56C3947.61 0 4096 152.935 4096 341.591V3754.41c0 188.65-148.39 341.59-331.44 341.59H331.442C148.392 4096 0 3943.06 0 3754.41V341.591C0 152.935 148.392 0 331.442 0z" id="A" class="E"/><linearGradient gradientUnits="userSpaceOnUse" id="B" x1="2121.693" x2="3011.008" y1="-231.572" y2="3855.511"><stop offset="0" stop-color="#e95454"/><stop offset=".223" stop-color="#be2b2b"/><stop offset=".621" stop-color="#f94d4d"/><stop offset="1" stop-color="#7a2f2f"/></linearGradient><path id="C" d="M1923.01-516.194c981.36-97.165 1685.62 464.455 1820.34 1353.746 116.26 445.698 77.88 1070.208-221.01 1863.258-298.89 793.06-497.35 906.43-899.66 1116.08 139.64-149.89 369.61-508.26 428.61-628.06 28.9-58.66-209.87 308.1-347.98 343.74 320.76-463.31 580.9-1071.23 416.92-2242.93-259.38-706.592-951.72-1307.427-891.44-1425.112s-339.4-55.966-320.73-135.265"/></defs><g class="E"><path d="M2055.85 1201.53c391.35 11.78 980.89-55.66 1482.29-135.66 52.59 86.45 19.61 119.95 78.92 255.13 0-299.79-69.4-723.491-356.03-1001.363 219.15 308.334 219.15 633.903 219.15 633.903s-1199.01 141.05-1415.36 142.95c-213.55 1.87-511.16-17.09-1025.17-73.3 0 0 330.84 157.71 1016.2 178.34z" fill="#fff" opacity="0"/><path d="M0 2048C0 916.921 916.921 0 2048 0s2048 916.921 2048 2048-916.92 2048-2048 2048S0 3179.08 0 2048z" fill="#ffe3eb"/></g><use fill="#ffe3eb" xlink:href="#A"/><clipPath id="D"><use xlink:href="#A"/></clipPath><g clip-path="url(#D)"><g class="E"><g class="C F"><g class="B"><path d="M3675.02 1436.23L331.739 1408.7s207.142 1309.53 417.77 1861.39c131.618 344.85 211.168 938.33 320.971 1161.48 0-14.43-327.461-1556.52-320.859-1716.95-18.156 211.06 396.769 1165.56 396.769 1549.31 0-648.99 90.44-75.28 157.5-781.01-31.78 655.59-132.11 622.58-80.18 781.01 22.29 67.99 208.2-1223.19 198.55-1178.9-13.54 62.12-198.92 1456.64-118.37 1616.83 205.7 409.03 981.06 48.13 1187.19-176.51 226.78-247.15 267.59-925.81 308.06-1347.09 40.47 436.68-217.69 1494.37-186.15 1523.6 94.65 87.71 369.12-1457.18 369.12-1683.21 56.25 418.51-134.32 1376.85-72.03 1521.13 72.03-552.77 373.32-967.88 395.05-1053.25 234.4-920.52 484.08-1978.69 457.23-2025.1" fill="#f94040"/><path d="M3675.02 1436.23L331.739 1408.7s-43.334 418.63 193.067 1382.42c87.931 358.48 320.328 1172.02 430.133 1395.17 0-14.43-211.92-1311.24-205.318-1471.67-18.156 211.06 253.799 1246.81 320.859 1549.31 0-648.99 0-447.04 67.07-1152.77-31.79 655.6 8.84 875.85 86.16 1259.8 80.18-447.03 212.57-1396.61 202.91-1352.31-13.53 62.11-74.62 1335.7 5.93 1495.88 205.7 409.04 852.4 235.46 1058.53 10.82 226.78-247.15 159.86-1060 200.33-1481.28 40.47 436.68 53.73 1354.67 85.27 1383.89 94.65 87.72 205.43-1183.28 205.43-1409.31 56.25 418.51-62.39 1726.33 71.37 1607.7 0-362.42 433.38-1632.66 455.12-1718.03 234.4-920.52 280.61-1400.48 253.76-1446.89" fill="#f25f5f"/></g><g fill="#fff6e4" class="G"><path d="M1668.21 3303.88s-41.36 403.36-245.95 532.22c0 0 54.96 846.18 645.29 867.4 590.33 21.21 754.54-748.78 729.09-768.36-227.15-174.78-265.51-523.22-320.42-665.05"/><path d="M358.642 1382.82C337.996 559.813 679.04-7.201 898.367-106.349 1796.71-833.432 2919.38-413.637 3151.82-149.684c390.02 338.805 433.35 815.496 433.35 815.496s126.07 1374.918-267.89 2001.318c-189.32 301.01-1027.6 740.04-1288.25 736.7-307.29-3.94-909.82-300.79-1296.126-827.31-164.777-224.59-372.223-1166.73-372.223-1166.73"/></g></g><g fill="#fffcfc"><path d="M2982.11 2096.03c-9.96-36.67-32.29-76.2-62.77-114.68-111.93-141.27-333.67-268.31-455.84-187.16-119.25 79.21-58.97 449.78 84.99 509.34 223.91 92.65 389.33-120.12 433.62-207.5zm-1844.56 0c9.96-36.67 32.29-76.2 62.77-114.68 111.93-141.27 333.67-268.31 455.84-187.16 119.25 79.21 58.97 449.78-84.99 509.34-223.91 92.65-389.33-120.12-433.62-207.5z"/></g><g class="G"><g fill="#d75843" class="D"><path d="M1482.7 1821.42c210.28-13.81 284.2 502.28-14.92 485.78-224.89-12.41-215.92-475.87 12.04-485.78m1227.33 45.35c248.22 67.61 127.41 513.2-51.67 486.33-115.77-17.36-163.78-117.52-164.4-223.05-.84-144.28 86.92-298.62 211.23-265.14"/></g><g fill="#56001b" stroke="#56001b"><path d="M2885.98 1891.61s-.02-.74 29.45 37.03c48.69 62.39 61.11 76.32 138.05 164.24-42.77-23.13-76.55-46.88-90.21-65.33-10.56-14.26 40.49 63.41 58.15 169.48-109.24-272.44-318.58-435.61-472.67-417.58-83.83 9.8-140.02 71.99-159.79 87.64 9.27-27.59 48.72-59.31 80.62-80.78-16.73 1.28-74.43 23.89-140.24 13.8 49.57-8.87 193.26-51.18 236.8-52.91-26.82-12.69-80.95-33.4-100.54-51.6 19.66 1.1 120.49 39.43 165.36 47.63 60.8 11.1 180.09 60.32 255.02 148.38zm-1648-3.61s.02-.73-29.45 37.03c-48.69 62.4-61.11 76.32-138.05 164.24 42.77-23.12 76.55-46.88 90.21-65.33 10.56-14.26-40.48 63.42-58.14 169.49 109.23-272.45 318.57-435.61 472.66-417.59 83.83 9.8 140.02 71.99 159.79 87.64-9.27-27.59-48.71-59.31-80.61-80.78 16.72 1.29 74.42 23.89 140.24 13.81-49.58-8.87-193.26-51.19-236.8-52.92 26.81-12.69 80.94-33.4 100.54-51.59-19.67 1.09-120.5 39.43-165.37 47.62-60.8 11.11-180.08 60.32-255.02 148.38z"/></g><g fill="#ff705a" class="D"><path d="M1543.09 2107.31c-78.92 2.46-125.29 96.98-115.06 174.99 3.1 23.68 67.04 26.61 95.46 22.41 37.93-5.61 122.88-57.68 115.06-90.08-12.78-53.01-40.06-109.04-95.46-107.32zm1115.82 245.76c43.81 1.46 96.16-24.81 114.13-53.78 17.19-27.69-26.62-170.36-128.94-157.96-55.31 6.7-124.24 102.89-98.48 149.96 18.48 33.79 61.67 60.05 113.29 61.78z"/></g></g><path d="M2651.63 2041.33c48.12-1.35 51.85 168.46-1.89 167.98-49.81-.44-48.81-166.56 1.89-167.98z" fill="#89200f" stroke-width="10" class="D"/><g class="G D"><path d="M1515.61 2006.8c50.83-1.36 54.68 157.39-2.09 156.91-52.62-.45-51.48-155.47 2.09-156.91z" fill="#861f0f"/><g fill="#fffcfc"><path d="M1552.95 1969.5c-21.13-21.71 33.01-76.52 51.85-57.31 16.02 16.34-30.71 79.01-51.85 57.31zm1138.87-9.17c-16.05-33.55 46.68-97.74 64.18-55.43 16.97 40.99-52.23 80.43-64.18 55.43z"/></g></g><path d="M2037.61-225.393c170.76 141.452-312.93-55.505-540.05 245.033-254.66 456.542-579.334 1519.95-606.292 2040.38-22.081 426.29 246.132 1035.45 445.582 1438.6-148.53-63.66-241.89-190.97-360.708-403.15 89.118 254.62 207.938 488.02 424.368 721.42-369.2-118.82-850.133-866.45-1044.876-1654.1C208.066 1565.94 56.571 884.212 619.268 105.092 906.555-292.689 1468.75-536.754 1948.09-514.082" class="B C F H"/><g stroke-linecap="square"><use xlink:href="#C" fill="url(#B)" stroke="#602e2e" stroke-width="5"/><g class="C H B"><use xlink:href="#C"/></g></g><path d="M2327.94-296.326C2615.51-113.423 2978 29.829 3093.13 537.777c144.31 530.823 18.38 1025.673-72.48 1324.283-94.38-345.38-30.45-435.19-203.65-849.48 64.95 393.7 25.87 455.92 37.87 863.5-198.13-75.76-375.68-271.29-484.08-420.84 94.61 170.29 122.28 195.59 267.53 349.71-186.63-91.9-1078.11-344.15-1203.31-1064.774 30.64 596.384 79.37 911.814-1.05 1056.984-27.83-165.77-299.78-294.04-325.2-755.58-2.18 494.74 127.76 529.11-104.38 904.74-21.383-557.25-418.025-683.47-177.955-1429.691 106.931-332.377 437.615-676.349 764.405-789.18" stroke-width="4" class="C F H"/></g><g class="B"><g stroke="#56001b" fill="none"><path d="M2426.51 1430.91c97.5-46.96 301.73-22.5 483.57 102.71m-1686.52.47c152.64-87.86 259.92-142.82 373.97-145.24 38.02-.81 76.78 4.22 118.24 15.82"/></g><path d="M2029.85 2576.25c5.55 11.54 25.09 35.98 14.85 45.32" fill="none" stroke="#c23b66"/></g><g class="E"><g stroke="#f41100" class="G"><path d="M1932.14 2915.15c57.76-72.61 152.31-71.16 204.84-14.4 49.76 53.77 93.97 182.73-110.14 183.01-166.24-4.15-141.97-109.18-94.7-168.61z" fill="#ff6a6f"/><path d="M1950.07 3064.56c45.82 18.92 64.7 18.04 79.78 16.93 15.09-1.11 52.69.99 90.54-18.93-8.9-62.28-158.27-78.74-170.32 2z" fill="#ff91b6"/></g><g stroke="#bc80cc" class="B"><path d="M1424.8 3826S64.164 4335.94 2.736 4478.54c-435.732 1011.52-287.447 656.73-699.982 1459.38S-2304.49 7357.76-2137.5 7279.18c166.98-78.58 758.77 899.92 758.77 899.92S96.651 6521.05 237.164 5923.87c-435.59 927.38-245.898 3456.61-709.59 3618.2s4854.716 133.49 4735.286 21.08c-365.54-344.04-736.24-3266.78-585.92-3316.03 150.33-49.25 1031.95 1824.98 1197.15 1721.21 189.2-118.86 679.02-415.41 687.84-588.79 16.74-328.78-788.72-850.57-926.72-1315.16-210.76-709.59-400.46-1370.64-597.17-1567.36-145.39-145.38-1256.27-581.54-1256.27-581.54s-145.54 376.24-679.83 635.6C1452.77 4168.36 1424.8 3826 1424.8 3826z" fill="#dca4eb"/><path d="M1428.34 3826s-89.29 33.23-204.63 79.72c260.64 535.67 656.46 741.61 878.7 796.14 254.76-23.63 696.98-336.23 863.92-713.88-56.33-19.67-181.02-72.5-181.02-72.5s-145.54 376.24-679.83 635.61C1456.31 4168.36 1428.34 3826 1428.34 3826z" fill="#f7d8ff"/></g></g><path d="M2329.52-297.704c287.36 183.243 649.68 326.922 764.2 835.006C3237.4 1068.29 3110.89 1563 3019.68 1861.5c-93.97-345.49-29.93-435.22-202.64-849.73 64.48 393.78 25.33 455.96 36.84 863.55-198.04-75.99-375.35-271.73-483.58-421.41 94.41 170.41 122.05 195.74 267.12 350.02-186.52-92.11-1077.7-345.41-1202.05-1066.187 29.93 596.417 78.29 911.907-2.31 1056.977-27.63-165.8-299.43-294.39-324.3-755.96-2.76 494.74 127.13 529.26-105.45 904.62-20.722-557.28-417.215-683.96-176.264-1429.902 107.323-332.251 438.414-675.832 765.334-788.277" fill="none" class="B C F"/></g></svg>